<svg xmlns="http://www.w3.org/2000/svg" viewBox="0 0 42.62 52.47"><defs><style>.cls-1,.cls-5{fill:#fff;}.cls-1,.cls-2,.cls-3,.cls-4,.cls-5,.cls-6{stroke:#fff;}.cls-1,.cls-2,.cls-3,.cls-4,.cls-5,.cls-6,.cls-7{stroke-miterlimit:10;}.cls-1,.cls-3{stroke-width:0.5px;}.cls-2,.cls-6{fill:none;}.cls-2,.cls-4,.cls-5{stroke-width:2px;}.cls-3{fill:#4ac8ef;}.cls-4{fill:#4cc8ef;}.cls-7{fill:#46c8f5;stroke:#4bc8f5;}</style></defs><title>Owlet_LOGO</title><g id="Layer_2" data-name="Layer 2"><g id="Layer_1-2" data-name="Layer 1"><polygon class="cls-1" points="18.24 39.71 17 41.53 13.58 47 12.91 47.75 9.75 47.75 7.84 47.75 6.67 47.75 5.59 48.58 6.92 48.58 8 48.58 9.27 49.07 12.12 49.49 14 49.49 15.16 49.49 17.41 49.9 18.91 49.9 20.57 50.9 21.99 50.9 23.99 51.39 25.57 51.39 26.74 52.14 27.4 51.31 26.74 50.32 25.32 49.74 23.82 49.41 22.41 48.99 22.49 47.42 23.16 45.43 24.24 44.1 25.49 43.61 28.32 42.86 18.24 39.71"/><polygon class="cls-2" points="21.94 40.4 20.31 43.11 19.78 42.85 17.54 46.75 17.54 47.36 20.05 48.02 21.94 44.82 23.22 41.76 23.61 40.79 21.94 40.4"/><polygon class="cls-3" points="21.25 40.34 19.62 43.06 19.09 42.8 16.84 46.7 16.84 47.31 19.35 47.97 21.25 44.77 22.52 41.7 22.92 40.74 21.25 40.34"/><path class="cls-4" d="M11.78,1.08a28.26,28.26,0,0,0-4.41,0A18.22,18.22,0,0,0,4,2.9c-.83.75-1.33.66-1.58,1.82s.42,1.49,0,2.49S1.62,8,1.62,8.87s-.5,2-.58,3,0,3.48,0,3.48l.41,3.39v2.16l1.84,4.55,2,2.49L7.7,31.07l3.5,3.81,3.16,2.4,2.5,1.57,2.08.92,6,4.39,1.25-.5L29,42.91l1.42-1.32L31.51,41l4.08.74,2.17.17,1,1.9.41-1.32-.41-1.16.83-.66,1.58-.09-1-2.48.67-.91-1.09-2-1.58-.91L36.51,33l-1.09-1.74-1.58-3.31-1.75-3.15-2.33-4.56L26.1,16.49l-2.58-2.57-1.17-2.16L21.6,9.28l-.91-2.9L19.52,4.23,17.36,2l-2-1Z"/><path class="cls-5" d="M17.48,5.57l-.35-.12a.69.69,0,0,0-.24,0l-.76-.06a1.06,1.06,0,0,0-.71.2L15,5.83a.85.85,0,0,0-.32.49v0A.71.71,0,0,0,15,7.1l.54.29a.58.58,0,0,0,.17.06l.56.12a1.16,1.16,0,0,0,1-.27l.3-.27a.58.58,0,0,0,.19-.39l.05-.45A.59.59,0,0,0,17.48,5.57Z"/><path class="cls-5" d="M8.54,5.85,7.91,5.2a1,1,0,0,0-.55-.29l-.47-.09a1.62,1.62,0,0,0-.58,0L5.2,5.09l.22.56-.06.7a.25.25,0,0,0,.07.2l.35.33a.68.68,0,0,0,.32.18l.82.16a.54.54,0,0,0,.18,0l.78-.15L8,7l.44-.26a.53.53,0,0,0,.2-.22l0-.06A.59.59,0,0,0,8.54,5.85Z"/><path class="cls-5" d="M11.41,11.45l1-2.3a.34.34,0,0,0,0-.22l-.73-2.51h-.49l-.58,2.36a.45.45,0,0,0,0,.2Z"/><path class="cls-6" d="M17.88,22l2.52,4.89a1.82,1.82,0,0,0,.47.56l5.36,4.26,3.39,1.8,3.24,1.82a2.59,2.59,0,0,1,.55.44l3,3.23a1.77,1.77,0,0,1,.28.43l1.09,2.45"/><line class="cls-6" x1="29.72" y1="30.22" x2="29.25" y2="33.35"/><path class="cls-2" d="M3.31,3.39l2-.26a2.94,2.94,0,0,1,1.7.28l3.89,1.92h1.51l1.83-1.08a2.29,2.29,0,0,1,.27-.14L14.71,4a3.17,3.17,0,0,1,3,.24l.45.29,1.36-.34"/><ellipse class="cls-7" cx="7.08" cy="6.2" rx="0.87" ry="0.86"/><ellipse class="cls-7" cx="16.13" cy="6.37" rx="0.87" ry="0.86"/></g></g></svg>