<svg xmlns="http://www.w3.org/2000/svg" viewBox="0 0 42.62 52.95"><defs><style>.cls-1,.cls-2,.cls-4{fill:none;}.cls-1,.cls-2,.cls-3,.cls-4,.cls-5{stroke:#fff;stroke-miterlimit:10;}.cls-1,.cls-3{stroke-width:2px;}.cls-2,.cls-5{stroke-width:0.5px;}.cls-3,.cls-5{fill:#fff;}</style></defs><title>Owlet</title><g id="Layer_2" data-name="Layer 2"><g id="Layer_1-2" data-name="Layer 1"><path class="cls-1" d="M11.78,1.08a28.26,28.26,0,0,0-4.41,0A18.22,18.22,0,0,0,4,2.9c-.83.75-1.33.66-1.58,1.82s.42,1.49,0,2.49S1.62,8,1.62,8.87s-.5,2-.58,3,0,3.48,0,3.48l.41,3.39v2.16l1.84,4.55,2,2.49L7.7,31.07l3.5,3.81,3.16,2.4,2.5,1.57,2.08.92,6,4.39,1.25-.5L29,42.91l1.42-1.32L31.51,41l4.08.74,2.17.17,1,1.9.41-1.32-.41-1.16.83-.66,1.58-.09-1-2.48.67-.91-1.09-2-1.58-.91L36.51,33l-1.09-1.74-1.58-3.31-1.75-3.15-2.33-4.56L26.1,16.49l-2.58-2.57-1.17-2.16L21.6,9.28l-.91-2.9L19.52,4.23,17.36,2l-2-1Z"/><path class="cls-2" d="M17.68,4.89l-.51-.17a1,1,0,0,0-.34-.07l-1.1-.09a1.6,1.6,0,0,0-1,.29l-.58.43a1.16,1.16,0,0,0-.47.71V6a1,1,0,0,0,.51,1.1l.78.42a1.06,1.06,0,0,0,.25.09l.8.18a1.7,1.7,0,0,0,1.48-.4L17.89,7a1,1,0,0,0,.29-.57l.07-.65A.88.88,0,0,0,17.68,4.89Z"/><path class="cls-2" d="M9.21,5.54l-.93-1a1.51,1.51,0,0,0-.81-.44L6.77,4a2.26,2.26,0,0,0-.86,0l-1.66.38.33.83-.09,1a.37.37,0,0,0,.1.29l.52.5a1,1,0,0,0,.48.26l1.22.24a.57.57,0,0,0,.26,0l1.17-.21.13,0L9,6.93a.72.72,0,0,0,.29-.33l0-.09A.87.87,0,0,0,9.21,5.54Z"/><path class="cls-3" d="M11.41,11.45l1-2.3a.34.34,0,0,0,0-.22l-.73-2.51h-.49l-.58,2.36a.45.45,0,0,0,0,.2Z"/><path class="cls-4" d="M17.88,22l2.52,4.89a1.82,1.82,0,0,0,.47.56l5.36,4.26,3.39,1.8,3.24,1.82a2.59,2.59,0,0,1,.55.44l3,3.23a1.77,1.77,0,0,1,.28.43l1.09,2.45"/><line class="cls-4" x1="29.72" y1="30.22" x2="29.25" y2="33.35"/><path class="cls-1" d="M3.31,3.39l2-.26a2.94,2.94,0,0,1,1.7.28l3.89,1.92h1.51l1.83-1.08a2.29,2.29,0,0,1,.27-.14L14.71,4a3.17,3.17,0,0,1,3,.24l.45.29,1.36-.34"/><ellipse class="cls-2" cx="16.07" cy="6.2" rx="1.54" ry="1.54"/><polygon class="cls-5" points="22.53 41.61 21.01 45.25 19.24 48.5 16.61 47.79 16.61 47.18 18.86 43.28 19.38 43.54 20.66 41.02 18.01 40.2 13.35 47.49 12.68 48.23 6.44 48.23 5.35 49.06 7.77 49.06 9.04 49.56 11.89 49.97 14.93 49.97 17.18 50.39 18.68 50.39 20.34 51.38 21.76 51.38 23.75 51.88 25.34 51.88 26.5 52.62 27.17 51.79 26.5 50.8 25.09 50.22 23.59 49.89 22.17 49.48 22.26 47.9 22.92 45.91 24 44.59 25.25 44.09 28.09 43.34 22.53 41.61"/><ellipse class="cls-2" cx="16.04" cy="6.19" rx="1.99" ry="1.54" transform="translate(-0.46 1.37) rotate(-4.81)"/><ellipse class="cls-2" cx="6.85" cy="5.89" rx="1.54" ry="1.54" transform="translate(-1.12 10.12) rotate(-68.64)"/><ellipse class="cls-2" cx="6.83" cy="5.87" rx="1.54" ry="1.99" transform="translate(-0.74 10.74) rotate(-73.45)"/><line class="cls-4" x1="5.24" y1="4.46" x2="4.52" y2="5.01"/><line class="cls-4" x1="5.03" y1="6.15" x2="4.88" y2="6.55"/><line class="cls-4" x1="8.99" y1="6.7" x2="8.98" y2="5.59"/></g></g></svg>